<?xml version="1.0" standalone="no"?>
<!DOCTYPE svg PUBLIC "-//W3C//DTD SVG 1.1//EN" "http://www.w3.org/Graphics/SVG/1.1/DTD/svg11.dtd" >
<svg xmlns="http://www.w3.org/2000/svg">
<metadata>Generated by IcoMoon</metadata>
<defs>
<font id="cds-ico" horiz-adv-x="512">
<font-face units-per-em="512" ascent="480" descent="-32" />
<missing-glyph horiz-adv-x="512" />
<glyph unicode="&#x20;" horiz-adv-x="256" d="" />
<glyph unicode="&#xe600;" glyph-name="cds-overview" d="M432 352h-352v-32h352zM432 272h-352v-32h352zM432 192h-352v-32h352zM432 112h-352v-32h352z" />
<glyph unicode="&#xe601;" glyph-name="cds-arrow-first" d="M48 352h32v-256h-32v256zM464 240h-289.36l107.168 83.36-19.632 25.28-160.24-124.64 160.24-124.64 19.632 25.28-107.168 83.36h289.36z" />
<glyph unicode="&#xe602;" glyph-name="cds-arrow-next" d="M298 348.496l-20-24.992 104.368-83.504h-318.368v-32h317.376l-107.184-83.344 19.616-25.28 160 124.432z" />
<glyph unicode="&#xe603;" glyph-name="cds-arrow-prev" d="M448 240h-321.36l107.168 83.36-19.616 25.28-160.256-124.64 160.256-124.64 19.616 25.28-107.168 83.36h321.36z" />
<glyph unicode="&#xe604;" glyph-name="cds-arrow-last" d="M432 368h32v-272h-32v272zM250 348.496l-20-24.992 104.368-83.504h-286.368v-32h285.376l-107.2-83.36 19.648-25.28 159.984 124.464z" />
<glyph unicode="&#xe605;" glyph-name="cds-download-slim" d="M112 46.992h272v-32h-272v32zM361.712 235.968l-105.712-133.488v328.512h-16v-328.512l-105.728 133.488-12.544-9.952 126.272-159.392 126.288 159.392z" />
<glyph unicode="&#xe606;" glyph-name="cds-download" d="M112 96h288v-64h-288v64zM400 256h-80v144h-128v-144h-80l144-144z" />
<glyph unicode="&#xe607;" glyph-name="cds-upload" d="M112 400h288v-64h-288v64zM112 176h80v-144h128v144h80l-144 144z" />
<glyph unicode="&#xe608;" glyph-name="cds-quicklinks" d="M480 356.32l-175.792 97.776-96.704-97.104-175.504 97.104v-372.608l176.208-97.776 96.8 93.872 174.992-93.872v372.608zM176 38.096l-112 62.224v299.392l112-62.224v-299.392zM448 38.096l-112 62.224v299.392l112-62.224v-299.392z" />
<glyph unicode="&#xe609;" glyph-name="cds-print" d="M400-16h-288v128h32v-96h224v96h32zM176 80h160v-32h-160v32zM400 368v38.624l-57.376 57.376h-230.624v-96h-96v-224h480v224h-96zM144 368v64h185.376l38.624-38.624v-105.376h-224v80z" />
<glyph unicode="&#xe60a;" glyph-name="cds-search" d="M202.32 445.616c-92.784 0-168-75.216-168-168 0-92.768 75.216-168 168-168s168 75.232 168 168c0 92.784-75.216 168-168 168zM202.32 141.616c-75.104 0-136 60.912-136 136 0 75.12 60.896 136 136 136s136-60.88 136-136c0-75.088-60.896-136-136-136zM466.32 77.616l-96.864 96.864c-16.064-25.984-38.016-47.936-64-64l96.864-96.864c15.632-15.616 48-48 80-16s0 64-16 80z" />
<glyph unicode="&#xe60b;" glyph-name="cds-zoom-out" d="M128 304h144v-48h-144v48zM202.32 445.616c-92.784 0-168-75.216-168-168 0-92.768 75.216-168 168-168s168 75.232 168 168c0 92.784-75.216 168-168 168zM202.32 141.616c-75.104 0-136 60.912-136 136 0 75.12 60.896 136 136 136s136-60.88 136-136c0-75.088-60.896-136-136-136zM466.32 77.616l-96.864 96.864c-16.064-25.984-38.016-47.936-64-64l96.864-96.864c15.632-15.616 48-48 80-16s0 64-16 80z" />
<glyph unicode="&#xe60c;" glyph-name="cds-zoom-in" d="M272 304h-48v48h-48v-48h-48v-48h48v-48h48v48h48zM202.32 445.616c-92.784 0-168-75.216-168-168 0-92.768 75.216-168 168-168s168 75.232 168 168c0 92.784-75.216 168-168 168zM202.32 141.616c-75.104 0-136 60.912-136 136 0 75.12 60.896 136 136 136s136-60.88 136-136c0-75.088-60.896-136-136-136zM466.32 77.616l-96.864 96.864c-16.064-25.984-38.016-47.936-64-64l96.864-96.864c15.632-15.616 48-48 80-16s0 64-16 80z" />
<glyph unicode="&#xe60d;" glyph-name="cds-rss" d="M432 48h-32c0 185.28-150.72 336-336 336v32c202.912 0 368-165.088 368-368zM287.056 48h-32c0 105.344-85.712 191.056-191.056 191.056v32c123.008 0 223.056-100.064 223.056-223.056zM160 96c0-26.51-21.49-48-48-48s-48 21.49-48 48c0 26.51 21.49 48 48 48s48-21.49 48-48z" />
<glyph unicode="&#xe60e;" glyph-name="cds-network" d="M408 245.984c-16.544 0-31.472-6.432-42.848-16.752l-127.776 109.536c6.688 10.112 10.624 22.208 10.624 35.216 0 35.344-28.656 64-64 64s-64-28.656-64-64c0-26.592 16.224-49.36 39.296-59.024l-46.080-165.904c-3.040 0.448-6.064 0.928-9.216 0.928-35.344 0-64-28.656-64-64s28.656-64 64-64 64 28.656 64 64c0 3.92-0.48 7.712-1.152 11.456l183.152 57.84c10.144-21.968 32.224-37.296 58-37.296 35.344 0 64 28.656 64 64s-28.656 64-64 64zM162 112.688c-6.688 14.512-18.528 26.144-33.296 32.336l46.080 165.904c3.040-0.448 6.064-0.928 9.216-0.928 16.544 0 31.472 6.448 42.848 16.752l127.776-109.536c-6.688-10.112-10.624-22.192-10.624-35.232 0-3.92 0.464-7.712 1.152-11.456l-183.152-57.84z" />
<glyph unicode="&#xe60f;" glyph-name="cds-sitemap" d="M336 288h-160v128h160v-128zM192 304h128v96h-128v-96zM320 16h-128v96h128v-96zM208 32h96v64h-96v-64zM480 16h-128v96h128v-96zM368 32h96v64h-96v-64zM160 16h-128v96h128v-96zM48 32h96v64h-96v-64zM272 224v32h-32v-32h-160v-80h32v48h128v-48h32v48h128v-48h32v80z" />
<glyph unicode="&#xe610;" glyph-name="cds-arrow-up" d="M395.968 250.64l-139.968 157.44-139.968-157.44 23.936-21.28 100.032 112.56v-309.92h32v309.92l100.032-112.56z" />
<glyph unicode="&#xe611;" glyph-name="cds-arrow-down" d="M372.032 202.64l-100.032-112.56v325.92h-32v-325.92l-100.032 112.56-23.936-21.28 139.968-157.44 139.968 157.44z" />
<glyph unicode="&#xe612;" glyph-name="cds-arrow-up-right" d="M176 368v-32h168.64l-232.64-231.616 24.384-24.032 231.616 228.8v-165.152h32v224z" />
<glyph unicode="&#xe613;" glyph-name="cds-arrow-up-left" d="M400 104.384l-230.896 231.616h166.896v32h-224v-224h32v166.896l231.616-230.544z" />
<glyph unicode="&#xe614;" glyph-name="cds-arrow-down-right" d="M368 304v-167.328l-232.032 231.328-23.68-24.208 231.008-231.792h-167.296v-32h224v224z" />
<glyph unicode="&#xe615;" glyph-name="cds-arrow-down-left" d="M400 344.096l-24.208 23.888-231.792-232.192v168.208h-32v-224h224v32h-166.064z" />
<glyph unicode="&#xe616;" glyph-name="cds-angle-right" d="M165.936 53.024l202.064 170.976-202.064 170.976-21.936-25.92 171.424-145.056-171.424-145.056z" />
<glyph unicode="&#xe617;" glyph-name="cds-angle-left" d="M346.064 53.024l-202.064 170.976 202.064 170.976 21.936-25.92-171.424-145.056 171.424-145.056z" />
<glyph unicode="&#xe618;" glyph-name="cds-angle-double-right" d="M245.936 53.024l202.064 170.976-202.064 170.976-21.936-25.92 171.424-145.056-171.424-145.056zM85.936 53.024l202.064 170.976-202.064 170.976-21.936-25.92 171.424-145.056-171.424-145.056z" />
<glyph unicode="&#xe619;" glyph-name="cds-angle-double-left" d="M266.064 53.024l-202.064 170.976 202.064 170.976 21.936-25.92-171.424-145.056 171.424-145.056zM426.064 53.024l-202.064 170.976 202.064 170.976 21.936-25.92-171.424-145.056 171.424-145.056z" />
<glyph unicode="&#xe61a;" glyph-name="cds-caret-up" d="M400 112h-288l144 224z" />
<glyph unicode="&#xe61b;" glyph-name="cds-caret-down" d="M400 336h-288l144-224z" />
<glyph unicode="&#xe61c;" glyph-name="cds-ok" d="M430.912 316.544l-36.544 36.512-192.48-192.496-84.24 84.256-36.544-36.528 120.784-120.752z" />
<glyph unicode="&#xe61d;" glyph-name="cds-wrong" d="M378.608 151.024l-80 79.984 80 80-47.984 48-80-80-80 80-48-48 80.016-80-80.016-79.984 48-48 80 80 80-80z" />
<glyph unicode="&#xe61e;" glyph-name="cds-plus" d="M392 264h-112v112h-64v-112h-112v-64h112v-112h64v112h112z" />
<glyph unicode="&#xe61f;" glyph-name="cds-minus" d="M104.288 262.608h288v-64h-288v64z" />
<glyph unicode="&#xe620;" glyph-name="cds-ok-outline" d="M203.104 72l-139.184 138.672 54.080 54.080 85.104-88.512 194.592 193.808 52.336-52.112-246.928-245.936zM84.928 212.112l118.192-117.712 225.44 224.512-29.808 29.792-195.648-194.864-88.384 88.064-29.792-29.792z" />
<glyph unicode="&#xe621;" glyph-name="cds-wrong-outline" d="M330.896 88l-82.896 82.88-82.896-82.88-61.104 61.088 82.896 82.912-82.896 82.896 61.104 61.104 82.896-82.88 82.896 82.896 61.104-61.12-82.896-82.896 82.896-82.912-61.104-61.088zM248 193.664l82.896-82.896 38.336 38.336-82.896 82.896 82.912 82.896-38.336 38.352-82.912-82.896-82.896 82.88-38.336-38.336 82.912-82.896-82.912-82.912 38.336-38.336 82.896 82.912z" />
<glyph unicode="&#xe622;" glyph-name="cds-plus-outlines" d="M296 72h-96v112h-112v96h112v112h96v-112h112v-96h-112v-112zM216 88h64v112h112v64h-112v112h-64v-112h-112v-64h112v-112z" />
<glyph unicode="&#xe623;" glyph-name="cds-minus-outline" d="M408 184h-320v96h320v-96zM104 200h288v64h-288v-64z" />
<glyph unicode="&#xe624;" glyph-name="cds-volume-up" d="M400 96h-80v64h-64v80h64v64h80v-64h64v-80h-64v-64zM336 112h48v64h64v48h-64v64h-48v-64h-64v-48h64v-64zM224 46.32l-90.752 81.68h-101.248v160h101.248l90.752 81.68v-323.36zM48 144h91.408l68.592-61.664v251.328l-68.592-61.664h-91.408v-128z" />
<glyph unicode="&#xe625;" glyph-name="cds-volume-off" d="M410.656 112l-42.656 42.672-42.656-42.672-53.344 53.328 42.672 42.672-42.672 42.672 53.344 53.328 42.656-42.672 42.656 42.672 53.344-53.328-42.672-42.672 42.672-42.672-53.344-53.328zM368 176l42.656-42.672 32.016 32-42.672 42.672 42.672 42.672-32.016 32-42.656-42.672-42.656 42.672-32.016-32 42.672-42.672-42.672-42.672 32.016-32 42.656 42.672zM224 46.32l-90.752 81.68h-101.248v160h101.248l90.752 81.68v-323.36zM48 144h91.408l68.592-61.664v251.328l-68.592-61.664h-91.408v-128z" />
<glyph unicode="&#xe626;" glyph-name="cds-volume-down" d="M464 160h-208v80h208v-80zM272 176h176v48h-176v-48zM224 46.32l-90.752 81.68h-101.248v160h101.248l90.752 81.68v-323.36zM48 144h91.408l68.592-61.664v251.328l-68.592-61.664h-91.408v-128z" />
<glyph unicode="&#xe627;" glyph-name="cds-undo" d="M64-2.48v162.48h165.040l-60.896-58c24.032-17.248 54.32-26.32 88.192-26.32 82.32 0 149.296 66.976 149.296 149.312s-66.976 149.312-149.296 149.312c-76.208 0-139.968-57.056-148.336-132.72l-0.928-8.368-67.616 11.008 0.944 7.632c13.44 108.816 106.272 190.864 215.936 190.864 120.24 0 218.064-97.664 218.064-217.728s-97.52-217.728-217.392-217.728c-50.304 0-97.28 16.784-136.336 48.624l-56.672-58.368zM119.664 77.808l5.712-4.976c37.2-32.432 82.72-49.568 131.616-49.568 111.056 0 201.392 90.496 201.392 201.728s-90.624 201.728-202.048 201.728c-99.024 0-183.232-72.224-198.96-169.232l35.856-5.824c12.864 79.6 81.552 138.624 163.104 138.624 91.136 0 165.296-74.16 165.296-165.312s-74.16-165.296-165.296-165.296c-41.104 0-77.616 12.288-105.568 35.536l-6.912 5.744 45.184 43.040h-109.040v-107.040l39.664 40.848z" />
<glyph unicode="&#xe628;" glyph-name="cds-trash" d="M328 16h-143.664c-31.056 0-56.336 24.816-56.336 55.328v264.672h256v-263.664c0-31.056-25.12-56.336-56-56.336zM144 320v-248.672c0-21.68 18.096-39.328 40.336-39.328h143.664c22.048 0 40 18.096 40 40.336v247.664h-224zM240 288h32v-208h-32v208zM304 288h32v-208h-32v208zM176 288h32v-208h-32v208zM368 384c0 8.832-7.168 16-16 16h-48c-0.096 6.288-1.424 22.704-12.88 34.88-8.448 8.992-20.272 13.552-35.12 13.552s-26.672-4.56-35.12-13.552c-11.616-12.352-12.848-29.104-12.896-34.88h-47.984c-8.832 0-16-7.168-16-16h-48v-32h320v32h-48zM232.544 423.92c5.312 5.648 13.2 8.512 23.456 8.512 10.224 0 18.080-2.832 23.392-8.432 7.44-7.856 8.496-19.296 8.608-24h-63.984c0.080 4.24 1.008 15.936 8.528 23.92z" />
<glyph unicode="&#xe629;" glyph-name="cds-pencil" d="M414.048 465.984l-333.328-333.328-59.168-136.816 144.768 49.264 334.688 333.936-86.96 86.944zM157.664 59.072l-57.12-19.424c-2.48 4.688-6.4 11.008-12.032 17.008-5.872 6.288-13.008 10.016-18.304 12.176l22.928 53.584 320.928 320.96 23.168-23.552-315.824-314.144c3.168-2.544 6.336-5.408 9.376-8.688 0.736-0.784 1.472-1.584 2.192-2.368l315.6 313.856 29.6-29.424-320.512-319.984z" />
<glyph unicode="&#xe62a;" glyph-name="cds-expand" d="M480 288v160h-160v-32h105.376l-169.376-169.376-169.376 169.376h105.376v32h-160v-160h32v105.376l169.376-169.376-169.376-169.376v105.376h-32v-160h160v32h-105.376l169.376 169.376 169.376-169.376h-105.376v-32h160v160h-32v-105.376l-169.376 169.376 169.376 169.376v-105.376z" />
<glyph unicode="&#xe62b;" glyph-name="cds-stop" d="M416 64h-320v320h320v-320zM112 80h288v288h-288v-288z" />
<glyph unicode="&#xe62c;" glyph-name="cds-pause-outline" d="M224 64h-112v336h112v-336zM128 80h80v304h-80v-304zM400 64h-112v336h112v-336zM304 80h80v304h-80v-304z" />
<glyph unicode="&#xe62d;" glyph-name="cds-record-outline" d="M256 64c-88.224 0-160 71.776-160 160s71.776 160 160 160 160-71.776 160-160-71.776-160-160-160zM256 368.752c-79.824 0-144.752-64.944-144.752-144.752s64.944-144.752 144.752-144.752 144.752 64.944 144.752 144.752-64.928 144.752-144.752 144.752z" />
<glyph unicode="&#xe62e;" glyph-name="cds-play-outline" d="M96 33.728v380.544l311.344-190.272-311.344-190.272zM112 385.728v-323.472l264.656 161.744-264.656 161.728z" />
<glyph unicode="&#xe62f;" glyph-name="cds-step-forward" d="M112 361.856l224-137.856-224-137.856v275.712zM128 334.112v-220.224l178.944 110.112-178.944 110.112zM336 352h48v-256h-48v256z" />
<glyph unicode="&#xe630;" glyph-name="cds-step-backward" d="M384 86.144l-224 137.856 224 137.856v-275.712zM189.072 224l178.928-110.112v220.224l-178.928-110.112zM112 352h48v-256h-48v256z" />
<glyph unicode="&#xe631;" glyph-name="cds-backward" d="M256 86.144l-224 137.856 224 137.856v-275.712zM61.072 224l178.928-110.112v220.224l-178.928-110.112zM480 86.144l-224 137.856 224 137.856v-275.712zM285.072 224l178.928-110.112v220.224l-178.928-110.112z" />
<glyph unicode="&#xe632;" glyph-name="cds-forward" d="M256 361.856l224-137.856-224-137.856v275.712zM272 334.112v-220.224l178.928 110.112-178.928 110.112zM32 361.856l224-137.856-224-137.856v275.712zM48 334.112v-220.224l178.928 110.112-178.928 110.112z" />
<glyph unicode="&#xe633;" glyph-name="cds-star-outline" d="M121.488 26.64l51.376 161.456-134.192 99.904h165.872l51.456 160.8 51.456-160.8h165.856l-134.176-99.968 51.392-161.040-134.512 99.008-134.528-99.36zM86.96 272l104.624-77.904-39.872-125.248 104.288 77.040 104.304-76.768-39.856 124.928 104.608 77.952h-129.296l-39.76 124.304-39.76-124.304h-129.28z" />
<glyph unicode="&#xe634;" glyph-name="cds-bookmark" d="M416.224 416.656h-264.224c-35.056 0-55.776-27.696-55.776-61.968v-339.632l136 123.376 136-123.376v209.6h48v192zM352.224 51.184l-120 108.848-120-108.848v303.504c0 26.4 14.736 45.968 39.776 45.968h219.84c-12.784-16-19.632-26.064-19.632-45.968v-303.504zM400.224 240.656h-32v114.032c0 26.4 16 53.712 32 53.712v-167.744z" />
<glyph unicode="&#xe635;" glyph-name="cds-paperclip" d="M255.808-15.808c-28.208 0-55.552 11.136-74.992 30.576-18.864 18.88-28.816 45.904-28.816 81.248v288c0 4.416 3.584 8 8 8s8-3.584 8-8v-288c0-31.136 8.256-54.048 24.128-69.936 16.464-16.448 39.68-25.888 63.664-25.888 42.992 0 88.208 30.96 88.208 95.824v288c0 25.584-10.72 44.272-30.208 55.52-19.232 11.104-44.048 11.12-63.248 0-21.536-12.448-34.544-32.208-34.544-55.52v-272c0-12.224 7.968-26.368 15.696-35.936 6.208-7.664 14.992-12.064 24.096-12.064 8.448 0 17.936 4.88 25.36 13.040 8.704 9.584 14.848 21.040 14.848 34.96v192c0 4.416 3.6 8 8 8v0c4.416 0 8-3.584 8-8v-192c0-17.872-7.632-33.184-19.008-45.712-10.4-11.44-24.32-18.288-37.2-18.288-13.952 0-27.264 6.56-36.528 17.984-9.040 11.2-19.264 28.736-19.264 46.016v272c0 29.008 16.080 54.080 42.544 69.376 24.048 13.888 55.152 13.904 79.248 0 24.576-14.192 38.208-37.92 38.208-69.376v-288c0-75.28-53.456-111.824-104.192-111.824z" />
<glyph unicode="&#xe636;" glyph-name="cds-picture" d="M64 350.992v-256h384v256h-384zM432 254.992l-32-32-48 80-64-112-48 48-112-128h-48v224h352v-80zM496 46.992h-480v352h480v-352zM32 62.992h448v320h-448v-320zM144 294.992c0-13.255-10.745-24-24-24s-24 10.745-24 24c0 13.255 10.745 24 24 24s24-10.745 24-24z" />
<glyph unicode="&#xe637;" glyph-name="cds-audio" d="M384 398.992l-176-53.344v-223.376c-16 11.008-35.152 14.448-55.792 6.96-29.52-10.752-46.064-39.456-37.12-64.064 8.976-24.624 39.904-35.888 69.424-25.136 22.672 8.272 39.488 29.696 39.488 49.136v213.824h0.32l143.68 37.792v-169.808c-16 11.008-34.064 14.416-54.704 6.912-29.552-10.768-45.584-39.472-36.608-64.112 8.976-24.656 39.088-35.872 68.624-25.152 22.72 8.256 38.688 26.72 38.688 46.192v264.176z" />
<glyph unicode="&#xe638;" glyph-name="cds-video" d="M16 382.992v-336h480v336h-480zM32 334.992h48v-48h-48v48zM32 238.992h48v-48h-48v48zM32 142.992h48v-48h-48v48zM96 62.992v304h320v-304h-320zM480 94.992h-48v48h48v-48zM480 190.992h-48v48h48v-48zM480 286.992h-48v48h48v-48zM192 126.992v176l139.344-88z" />
<glyph unicode="&#xe639;" glyph-name="cds-presentation" d="M465.664 408h-169.664c0 17.664-14.336 32-32 32s-32-14.336-32-32h-169.664c-12.336 0-22.336-10-22.336-22.336v-3.344c0-10.112 6.784-18.56 16-21.312v-257.008h416v257.024c9.216 2.736 16 11.184 16 21.312v3.328c0 12.336-10 22.336-22.336 22.336zM456 120h-384v240h384v-240zM349.008 14.256l-84.576 67.664-100.864-67.248c-3.664-2.448-4.672-7.408-2.224-11.088 1.552-2.336 4.080-3.584 6.656-3.584 1.536 0 3.072 0.432 4.432 1.344l79.936 53.28-12.224-61.056c-0.88-4.336 1.936-8.528 6.288-9.408 0.512-0.112 1.040-0.16 1.584-0.16 3.728 0 7.056 2.624 7.824 6.432l13.424 67.104 69.728-55.792c3.456-2.752 8.48-2.224 11.248 1.248 2.768 3.456 2.208 8.496-1.232 11.264zM105.248 156.752l-12.496 10 73.376 91.712 78.976-47.408 65.152 114 80.496-80.496 31.024 46.528 13.312-8.864-41.84-62.784-79.504 79.504-62.848-110-81.024 48.592z" />
<glyph unicode="&#xe63a;" glyph-name="cds-user" d="M256 232c-48.512 0-88 39.472-88 88s39.488 88 88 88 88-39.472 88-88-39.488-88-88-88zM256 392c-39.696 0-72-32.304-72-72s32.304-72 72-72 72 32.304 72 72-32.304 72-72 72zM311.184 201.776c-16.992-6.272-35.616-9.776-55.184-9.776s-38.192 3.504-55.184 9.776c-22.128-19.52-88.816-81.712-88.816-121.776 0-32 54-48 144-48s144 16 144 48c0 40.064-66.688 102.256-88.816 121.776z" />
<glyph unicode="&#xe63b;" glyph-name="cds-user-add" d="M480 240h-64v64h-64v-64h-64v-64h64v-64h64v64h64zM160 200c-39.696 0-72 32.304-72 72s32.304 72 72 72 72-32.304 72-72-32.304-72-72-72zM160 328c-30.88 0-56-25.12-56-56s25.12-56 56-56 56 25.12 56 56-25.12 56-56 56zM204.784 169.776c-13.792-5.088-28.912-7.936-44.784-7.936s-30.992 2.848-44.784 7.936c-17.952-15.856-72.080-66.32-72.080-98.832 0-25.952 43.84-38.944 116.864-38.944s116.864 12.992 116.864 38.96c0 32.512-54.128 82.976-72.080 98.816z" />
<glyph unicode="&#xe63c;" glyph-name="cds-users" d="M300.784 169.776c-13.792-5.088-28.912-7.936-44.784-7.936s-30.992 2.848-44.784 7.936c-17.952-15.856-72.080-66.32-72.080-98.832 0-25.952 43.84-38.944 116.864-38.944s116.864 12.992 116.864 38.96c0 32.496-54.128 82.976-72.080 98.816zM428.784 249.776c-13.792-5.088-28.912-7.936-44.784-7.936-6.768 0-13.36 0.624-19.808 1.616-5.344-20.272-16.16-38.288-30.864-52.336 19.856-18.368 50.128-48.416 70.944-78.704 60.752 2.272 96.592 15.088 96.592 38.544 0 32.496-54.128 82.976-72.080 98.816zM147.808 243.456c-6.448-0.992-13.040-1.616-19.808-1.616-15.872 0-30.992 2.848-44.784 7.936-17.952-15.856-72.080-66.32-72.080-98.832 0-23.456 35.84-36.288 96.592-38.544 20.816 30.304 51.072 60.336 70.944 78.704-14.704 14.064-25.52 32.080-30.864 52.352zM256 200c-39.696 0-72 32.304-72 72s32.304 72 72 72 72-32.304 72-72-32.304-72-72-72zM256 328c-30.88 0-56-25.12-56-56s25.12-56 56-56 56 25.12 56 56-25.12 56-56 56zM147.424 301.040c-5.76-3.2-12.384-5.040-19.424-5.040-22.064 0-40 17.936-40 40s17.936 40 40 40c20.256 0 37.008-15.12 39.632-34.672 3.936 4.992 8.256 9.664 12.96 13.936-7.888 21.408-28.48 36.736-52.592 36.736-30.88 0-56-25.12-56-56s25.12-56 56-56c5.6 0 11.008 0.832 16.096 2.368 0.592 6.4 1.712 12.64 3.328 18.672zM384 392c-24.112 0-44.72-15.328-52.592-36.736 4.704-4.272 9.024-8.944 12.96-13.936 2.624 19.552 19.376 34.672 39.632 34.672 22.064 0 40-17.936 40-40s-17.936-40-40-40c-7.040 0-13.664 1.84-19.44 5.040 1.632-6.032 2.752-12.288 3.344-18.672 5.104-1.536 10.496-2.368 16.096-2.368 30.88 0 56 25.12 56 56s-25.12 56-56 56z" />
<glyph unicode="&#xe63d;" glyph-name="cds-invalid" d="M387.552 76.24c6.176-10.048 20.336-14.192 31.056-7.744 10.64 6.368 13.856 19.744 7.776 30.944l-66.016 114.016c-4.144 6.88-11.328 10.736-18.768 10.976h-96.88l-0.896 29.248h70.368c9.6 0.576 17.456 7.888 17.456 17.728 0 9.696-7.632 17.232-17.456 17.584h-72.432l-2.528 26.704c-1.36 20.336-18.864 36.336-39.456 35.2-20.624-1.184-36.256-19.008-35.264-39.552l6.752-111.040c1.712-20.56 18.976-35.296 39.408-35.184h125.584l51.296-88.88zM231.92 409.088c0-19.281-15.631-34.912-34.912-34.912s-34.912 15.63-34.912 34.912c0 19.282 15.631 34.912 34.912 34.912s34.912-15.63 34.912-34.912zM344.688 100.080c-17.664-49.536-65.040-85.088-120.576-85.088-70.576 0-128 57.424-128 128 0 40.528 18.976 76.704 48.448 100.176l-1.152 19.024c-38.16-25.92-63.296-69.68-63.296-119.2 0-79.408 64.608-144 144-144 57.84 0 107.808 34.288 130.704 83.584l-10.128 17.504z" />
<glyph unicode="&#xe63e;" glyph-name="cds-invalid-wc" d="M345.776 363.232h0.256l20.128 79.872h8.944l-24.192-92.16h-9.6l-21.376 81.408h-0.256l-21.376-81.408h-9.632l-23.776 92.16h8.704l19.84-79.872h0.256l21.376 79.872h9.744l20.96-79.872zM469.648 416.336c-1.792 7.856-5.12 13.44-9.984 16.768-4.88 3.328-11.232 4.992-19.072 4.992-5.552 0-10.336-1.12-14.336-3.328-4.016-2.224-7.328-5.216-9.92-8.96-2.608-3.76-4.528-8.080-5.76-12.992s-1.856-10.096-1.856-15.552c0-5.12 0.528-10.16 1.616-15.104 1.056-4.96 2.832-9.36 5.312-13.248 2.464-3.888 5.792-7.024 9.984-9.408 4.176-2.384 9.424-3.584 15.728-3.584 3.92 0 7.52 0.64 10.752 1.92 3.248 1.28 6.080 3.040 8.512 5.312 2.432 2.256 4.48 4.928 6.144 8s2.928 6.432 3.776 10.112h9.088c-1.024-4.432-2.528-8.64-4.48-12.608-1.968-3.968-4.544-7.44-7.744-10.432-3.184-2.992-7.072-5.36-11.648-7.104-4.56-1.744-9.92-2.624-16.064-2.624-7.088 0-13.136 1.296-18.192 3.904-5.024 2.608-9.136 6.128-12.336 10.56s-5.536 9.584-6.992 15.424c-1.44 5.856-2.176 12.064-2.176 18.624 0 8.784 1.088 16.256 3.264 22.4s5.184 11.152 9.024 15.040c3.824 3.872 8.352 6.688 13.568 8.448s10.88 2.624 17.024 2.624c4.688 0 9.056-0.624 13.104-1.856 4.064-1.232 7.648-3.088 10.752-5.568 3.12-2.48 5.664-5.536 7.68-9.152 2-3.632 3.392-7.824 4.16-12.608h-8.928zM355.552 76.24c6.176-10.048 20.336-14.192 31.056-7.744 10.64 6.368 13.856 19.744 7.776 30.944l-66.016 114.016c-4.144 6.88-11.328 10.736-18.768 10.976h-96.88l-0.896 29.248h70.368c9.6 0.576 17.456 7.888 17.456 17.728 0 9.696-7.632 17.232-17.456 17.584h-72.432l-2.528 26.704c-1.36 20.336-18.864 36.336-39.456 35.2-20.624-1.184-36.256-19.008-35.264-39.552l6.752-111.040c1.712-20.56 18.976-35.296 39.408-35.184h125.584l51.296-88.88zM199.92 409.088c0-19.281-15.631-34.912-34.912-34.912s-34.912 15.63-34.912 34.912c0 19.282 15.631 34.912 34.912 34.912s34.912-15.63 34.912-34.912zM312.688 100.080c-17.664-49.536-65.040-85.088-120.576-85.088-70.576 0-128 57.424-128 128 0 40.528 18.976 76.704 48.448 100.176l-1.152 19.024c-38.16-25.92-63.296-69.68-63.296-119.2 0-79.408 64.608-144 144-144 57.84 0 107.808 34.288 130.704 83.584l-10.128 17.504z" />
<glyph unicode="&#xe63f;" glyph-name="cds-invalid-parking" d="M384 307.504v138.24h50.496c8.976 0 16.336-1.024 22.192-3.072 5.808-2.048 10.416-4.864 13.808-8.448s5.76-7.712 7.104-12.384 2.016-9.568 2.016-14.688c0-7.68-1.568-14.016-4.704-19.008s-7.2-8.928-12.208-11.808c-4.992-2.88-10.656-4.896-16.992-6.048s-12.704-1.728-19.104-1.728h-29.568v-61.056h-13.040zM427.008 379.696c6.144 0 11.648 0.384 16.512 1.152s8.992 2.208 12.368 4.32c3.408 2.112 6.032 4.992 7.872 8.64 1.856 3.648 2.784 8.416 2.784 14.304 0 8.704-2.848 15.296-8.528 19.776-5.696 4.48-14.768 6.72-27.184 6.72h-33.776v-54.912h29.952zM387.552 76.24c6.176-10.048 20.336-14.192 31.056-7.744 10.64 6.368 13.856 19.744 7.776 30.944l-66.016 114.016c-4.144 6.88-11.328 10.736-18.768 10.976h-96.88l-0.896 29.248h70.368c9.6 0.576 17.456 7.888 17.456 17.728 0 9.696-7.632 17.232-17.456 17.584h-72.432l-2.528 26.704c-1.36 20.336-18.864 36.336-39.456 35.2-20.624-1.184-36.256-19.008-35.264-39.552l6.752-111.040c1.712-20.56 18.976-35.296 39.408-35.184h125.584l51.296-88.88zM231.92 409.088c0-19.281-15.631-34.912-34.912-34.912s-34.912 15.63-34.912 34.912c0 19.282 15.631 34.912 34.912 34.912s34.912-15.63 34.912-34.912zM344.688 100.080c-17.664-49.536-65.040-85.088-120.576-85.088-70.576 0-128 57.424-128 128 0 40.528 18.976 76.704 48.448 100.176l-1.152 19.024c-38.16-25.92-63.296-69.68-63.296-119.2 0-79.408 64.608-144 144-144 57.84 0 107.808 34.288 130.704 83.584l-10.128 17.504z" />
<glyph unicode="&#xe640;" glyph-name="cds-map-marker" d="M256 14.992l-6.304 8.432c-5.6 7.568-137.696 185.728-137.696 262.96 0 79.728 64.592 144.608 144 144.608s144-64.88 144-144.608c0-77.248-132.096-255.392-137.696-262.96l-6.304-8.432zM256 415.216c-70.736 0-128.288-57.792-128.288-128.816 0-62.928 101.68-208 128.288-244.864 26.592 36.864 128.288 181.936 128.288 244.864 0 71.024-57.552 128.816-128.288 128.816zM320 286.992c0-35.346-28.654-64-64-64s-64 28.654-64 64c0 35.346 28.654 64 64 64s64-28.654 64-64z" />
<glyph unicode="&#xe641;" glyph-name="cds-map-and-markers" d="M87.504 212.976c-34.512 0-62.496-27.984-62.496-62.496s62.496-118.064 62.496-118.064 62.496 83.552 62.496 118.064-27.984 62.496-62.496 62.496zM87.504 115.76c-19.168 0-34.72 15.552-34.72 34.72s15.552 34.72 34.72 34.72 34.72-15.552 34.72-34.72-15.552-34.72-34.72-34.72zM76.992 9.328l-4.624 15.312c0.112 0.032 9.088 2.768 22.24 7.6l5.536-15.008c-13.776-5.072-23.152-7.904-23.152-7.904zM374.384 17.744l-6.096 14.784 14.16 5.744c10.224 4.112 20.816 8.352 31.024 12.96l6.56-14.592c-10.4-4.672-21.216-9.008-31.632-13.2l-14.016-5.696zM131.008 29.792l-6.528 14.592c16.656 7.44 30.784 15.056 41.984 22.64l8.976-13.248c-11.984-8.112-26.928-16.176-44.432-23.984zM450.064 52.272l-8.528 13.536c8.576 5.392 15.024 10.656 19.744 16.096 4.096 4.768 7.536 10.128 10.192 15.904l14.528-6.688c-3.28-7.136-7.52-13.744-12.608-19.664-5.776-6.688-13.424-12.944-23.328-19.184zM201.712 77.104l-12.624 9.808c2.864 3.68 4.864 7.28 5.952 10.72 1.136 3.52 1.68 7.104 1.68 10.96 0 5.184-1.008 10.944-3.104 17.568l15.248 4.816c2.592-8.208 3.856-15.536 3.856-22.368 0-5.472-0.832-10.8-2.448-15.84-1.648-5.232-4.544-10.496-8.56-15.664zM494.24 125.696l-15.968 0.816c0.080 1.68 0.128 3.344 0.128 5.008-0.016 12.8-2.464 26.336-7.296 40.208l15.088 5.248c5.424-15.552 8.192-30.848 8.208-45.44-0.016-1.968-0.064-3.904-0.16-5.84zM181.52 155.824c-4.528 10.912-8.752 22.704-8.768 35.12 0 6.432 1.152 12.624 3.456 18.4l14.88-5.904c-1.568-3.952-2.336-8.032-2.336-12.48 0.016-9.616 3.632-19.616 7.552-28.992l-14.784-6.144zM458.016 200.016c-7.792 13.44-17.376 26.032-28.48 37.44l11.472 11.152c12.016-12.336 22.384-25.984 30.864-40.56l-13.856-8.032zM209.056 224.976l-9.664 12.752c11.584 8.752 27.328 16.944 45.568 23.648l5.536-15.008c-16.784-6.192-31.104-13.584-41.44-21.392zM405.088 253.6c-12.56 5.216-27.792 8.432-45.28 9.552l1.008 15.968c19.264-1.216 36.24-4.848 50.432-10.736l-6.16-14.784zM280.96 255.52l-3.744 15.568c16.608 3.984 33.376 6.608 49.824 7.776l1.12-15.968c-15.568-1.088-31.456-3.568-47.2-7.376zM332.32-8.032l-15.28 4.72c2.336 7.6 8.768 14.32 20.208 21.136l8.192-13.744c-9.504-5.664-12.384-9.728-13.12-12.112zM376.496 212.976c-34.512 0-62.496-27.984-62.496-62.496s62.496-118.064 62.496-118.064 62.496 83.552 62.496 118.064-27.984 62.496-62.496 62.496zM376.496 115.76c-19.168 0-34.72 15.552-34.72 34.72s15.552 34.72 34.72 34.72 34.72-15.552 34.72-34.72-15.552-34.72-34.72-34.72zM312.848 425.008c-29.328 0-53.104-23.776-53.104-53.104s53.104-100.32 53.104-100.32 53.088 70.992 53.088 100.32-23.776 53.104-53.088 53.104zM312.848 342.4c-16.304 0-29.504 13.2-29.504 29.504 0 16.288 13.2 29.504 29.504 29.504s29.504-13.216 29.504-29.504c-0.016-16.304-13.216-29.504-29.504-29.504z" />
<glyph unicode="&#xe642;" glyph-name="cds-map" d="M344 464c-44.72 0-81.008-36.848-81.008-82.288s81.008-205.712 81.008-205.712 81.008 160.288 81.008 205.712-36.288 82.288-81.008 82.288zM345.264 338c-24.464 0-44.304 20.144-44.304 45.008s19.84 44.992 44.304 44.992 44.304-20.144 44.304-45.008-19.84-44.992-44.304-44.992zM448 358.48v-18.304l16-8.896v-317.68l-80 44.448c0 0-2.72 27.904-16.72 45.232-14.224 17.6-37.952 37.392-75.616 29.312-34.992-7.504-42.336 40.752-74.336 56.752s-54.672 5.664-89.664-2c-49.424-10.832-79.664 68.656-79.664 68.656v146.4l136-75.552 56 31.12v18.288l-56-31.104-152 84.448v-354.304l152-84.432 144 80 152-84.464v354.304l-32 17.776z" />
<glyph unicode="&#xe643;" glyph-name="cds-unlock" d="M176 272v48c0 2.64 0.912 64.672 80 64.672 78.64 0 79.984-62.048 80-64.672v-16h16v16c0 0.8-1.088 80.672-96 80.672s-96-79.872-96-80.672v-48h-32v-176c0-27.216 65.84-32 88.672-32h80c22.832 0 87.328 4.784 87.328 32v176h-208zM368 96c-0.784-5.856-33.184-16-71.328-16h-80c-38.144 0-71.888 10.144-72.672 16v160h224v-160zM288 192c0 17.664-14.336 32-32 32s-32-14.336-32-32c0-16.128 11.984-29.344 27.504-31.552-8.8-20.368-27.504-48.448-27.504-48.448h64c0 0-18.704 28.080-27.504 48.448 15.52 2.208 27.504 15.424 27.504 31.552z" />
<glyph unicode="&#xe644;" glyph-name="cds-lock" d="M352 272v48c0 0.8-1.088 80.672-96 80.672s-96-79.872-96-80.672v-48h-32v-176c0-27.216 65.84-32 88.672-32h80c22.832 0 87.328 4.784 87.328 32v176h-32zM176 320c0 2.64 0.912 64.672 80 64.672 78.64 0 79.984-62.048 80-64.672v-48h-160v48zM368 96c-0.784-5.856-33.184-16-71.328-16h-80c-38.144 0-71.888 10.144-72.672 16v160h224v-160zM288 192c0 17.664-14.336 32-32 32s-32-14.336-32-32c0-16.128 11.984-29.344 27.504-31.552-8.8-20.368-27.504-48.448-27.504-48.448h64c0 0-18.704 28.080-27.504 48.448 15.52 2.208 27.504 15.424 27.504 31.552z" />
<glyph unicode="&#xe645;" glyph-name="cds-mail" d="M40 376v-288h416v288h-416zM427.904 360l-179.904-149.6-179.904 149.6h359.808zM56 114.816v234.432l129.248-107.472zM197.632 231.504l50.368-41.904 50.368 41.904 130.032-127.504h-360.544zM440 115.056l-129.248 126.72 129.248 107.472v-234.192z" />
<glyph unicode="&#xe646;" glyph-name="cds-document" d="M144 78.992h224v-16h-224v16zM144 142.992h224v-16h-224v16zM144 206.992h224v-16h-224v16zM315.328 446.992h-219.328v-448h320v346.8l-100.672 101.2zM400 14.992h-288v416h192v-96h96v-320zM144 270.992h224v-16h-224v16z" />
<glyph unicode="&#xe647;" glyph-name="cds-document-list" d="M192.224 128.656h176v-32h-176v32zM144.224 128.656h32v-32h-32v32zM416.224 16.656h-320v416h320v-416zM112.224 32.656h288v384h-288v-384zM192.224 368.656h176v-32h-176v32zM144.224 368.656h32v-32h-32v32zM192.224 208.656h176v-32h-176v32zM144.224 208.656h32v-32h-32v32zM192.224 288.656h176v-32h-176v32zM144.224 288.656h32v-32h-32v32z" />
<glyph unicode="&#xe648;" glyph-name="cds-link" d="M240 137.68l-47.552-47.36c-19.392-19.456-34.512-27.696-67.040 3.2-32.528 30.912-22.608 47.728-3.216 67.168l78.992 79.056c19.424 19.44 33.904 25.248 64.8-5.456 0 0 9.664-9.696 13.632-13.456 3.968-3.744 8.592-2.96 10.976-0.704s18.816 17.76 18.816 17.76l-43.408 43.328c-19.408 19.44-50.864 19.44-70.288 0l-117.12-117.328c-19.392-19.424-19.392-50.944 0-70.368l46.848-46.96c19.392-19.408 50.88-19.408 70.272 0l80.32 80.096c-12.64-0.288-25.312 3.376-36.032 11.024zM272 310.336l47.568 47.36c19.392 19.456 34.512 27.696 67.040-3.2s22.624-47.728 3.232-67.168l-78.992-79.056c-19.424-19.44-33.92-25.248-64.8 5.456 0 0-9.664 9.696-13.632 13.456s-8.592 2.96-10.96 0.704c-2.384-2.256-18.816-17.76-18.816-17.76l43.392-43.328c19.408-19.44 50.88-19.44 70.304 0l117.12 117.328c19.392 19.44 19.392 50.944 0 70.368l-46.848 46.944c-19.392 19.408-50.864 19.408-70.272 0l-80.32-80.096c12.608 0.304 25.28-3.36 35.984-11.008z" />
<glyph unicode="&#xe649;" glyph-name="cds-news" d="M88 267.248v75.52h10.656l24.208-38.224c5.6-8.848 9.984-16.8 13.568-24.544l0.224 0.112c-0.896 10.080-1.12 19.28-1.12 31.040v31.616h9.184v-75.52h-9.872l-23.984 38.32c-5.264 8.4-10.304 17.040-14.128 25.216l-0.336-0.112c0.56-9.536 0.784-18.608 0.784-31.152v-32.272h-9.184zM200.816 302.656h-29.376v-27.232h32.72v-8.176h-42.464v75.52h40.8v-8.176h-31.040v-23.872h29.376v-8.064zM230.128 267.248l-19.152 75.52h10.32l8.976-38.224c2.24-9.408 4.256-18.816 5.6-26.112h0.224c1.248 7.52 3.6 16.48 6.176 26.24l10.080 38.096h10.208l9.184-38.336c2.144-8.96 4.144-17.936 5.264-25.888h0.224c1.584 8.288 3.712 16.688 6.064 26.112l9.968 38.096h9.968l-21.408-75.52h-10.192l-9.536 39.328c-2.336 9.632-3.904 17.024-4.928 24.656h-0.24c-1.344-7.504-3.008-14.896-5.808-24.656l-10.768-39.328h-10.224zM311.216 279.12c4.352-2.688 10.752-4.944 17.472-4.944 9.968 0 15.808 5.264 15.808 12.896 0 7.056-4.032 11.088-14.256 15.008-12.32 4.368-19.936 10.752-19.936 21.408 0 11.76 9.744 20.496 24.432 20.496 7.712 0 13.328-1.792 16.688-3.696l-2.688-7.952c-2.464 1.344-7.504 3.584-14.336 3.584-10.32 0-14.24-6.16-14.24-11.328 0-7.056 4.608-10.528 15.008-14.576 12.784-4.928 19.28-11.088 19.28-22.192 0-11.648-8.624-21.728-26.432-21.728-7.296 0-15.248 2.128-19.28 4.816l2.48 8.208zM72 232h192v-128h-192v128zM280 232h96v-32h-96v32zM280 184h96v-32h-96v32zM280 136h96v-32h-96v32zM499.040 280h-91.040v96h-368v-352h368l91.040 256zM392 40h-336v320h336v-320zM408 264h68.96l-68.96-195.744v195.744z" />
<glyph unicode="&#xe64a;" glyph-name="cds-help-slim" d="M239.744 132.688c-0.32 18.080 0.944 34.832 3.728 49.76 3.2 16.976 13.68 31.648 24.544 44.976 15.12 18.592 42.672 52.464 49.088 64.272 3.712 6.816 5.536 13.744 5.536 21.2s-1.472 14.544-4.368 21.056c-2.912 6.432-7.184 12.16-12.704 16.976-5.632 4.912-12.688 8.848-21.008 11.712-16.72 5.728-41.12 6.288-57.904-1.184-8.192-3.664-15.104-8.784-20.56-15.216-5.6-6.56-9.872-14.32-12.768-23.072-2.912-8.848-4.24-18.704-3.936-29.312l-16-0.432c-0.336 12.448 1.264 24.144 4.752 34.736 3.536 10.736 8.848 20.32 15.76 28.448 7.008 8.24 15.84 14.8 26.24 19.44 20.528 9.152 49.152 8.736 69.632 1.696 10.304-3.536 19.136-8.512 26.336-14.768 7.264-6.336 12.912-13.904 16.8-22.48 3.824-8.608 5.76-17.888 5.76-27.616 0-10.064-2.512-19.776-7.488-28.864-7.12-13.088-34.224-46.4-50.4-66.304-11.328-13.936-19.152-25.536-21.568-38.256-2.592-13.84-3.744-29.504-3.456-46.512l-16.016-0.256zM256 86.992c0-4.418-3.582-8-8-8s-8 3.582-8 8c0 4.418 3.582 8 8 8s8-3.582 8-8zM256-17.008c-132.336 0-240 107.664-240 240s107.664 240 240 240 240-107.664 240-240c0-132.336-107.664-240-240-240zM256 446.992c-123.52 0-224-100.48-224-224s100.48-224 224-224 224 100.48 224 224-100.48 224-224 224z" />
<glyph unicode="&#xe64b;" glyph-name="cds-get-help" d="M257.872 448.656c-123.872 0-224.656-100.784-224.656-224.672 0-123.872 100.784-224.656 224.656-224.656s224.656 100.784 224.656 224.656c0 123.888-100.784 224.672-224.656 224.672zM358.832 173.52c7.648 15.2 12.048 32.32 12.048 50.464s-4.4 35.264-12.048 50.48l85.456 42.72c14.112-28.096 22.256-59.664 22.256-93.2s-8.144-65.104-22.256-93.2l-85.456 42.736zM160.88 223.984c0 53.488 43.52 97.008 97.008 97.008s97.008-43.52 97.008-97.008-43.536-96.992-97.024-96.992-96.992 43.52-96.992 96.992zM351.072 410.4l-42.72-85.456c-15.216 7.648-32.336 12.048-50.48 12.048s-35.264-4.4-50.48-12.048l-42.72 85.456c28.096 14.112 59.68 22.256 93.2 22.256s65.12-8.144 93.2-22.256zM71.472 317.2l85.456-42.72c-7.648-15.216-12.048-32.32-12.048-50.48s4.4-35.264 12.048-50.464l-85.456-42.736c-14.112 28.096-22.256 59.664-22.256 93.2s8.144 65.104 22.256 93.2zM164.672 37.584l42.72 85.456c15.216-7.648 32.336-12.048 50.48-12.048s35.264 4.4 50.48 12.048l42.72-85.456c-28.096-14.128-59.68-22.256-93.2-22.256s-65.104 8.128-93.2 22.256z" />
<glyph unicode="&#xe64c;" glyph-name="cds-external-link" d="M257.952 400l60.592-60.608-96.96-96.976 84.848-84.832 96.96 96.96 60.608-60.608v206.064zM416 32h-320v320h144v-16h-128v-288h288v112h16z" />
<glyph unicode="&#xe64d;" glyph-name="cds-event" d="M170.544 108.656c4.512 9.28 13.296 17.712 26.368 25.296l19.504 11.264c8.72 5.088 14.848 9.424 18.368 13.008 5.568 5.648 8.336 12.080 8.336 19.328 0 8.496-2.544 15.216-7.616 20.224-5.088 4.976-11.856 7.472-20.32 7.472-12.528 0-21.2-4.752-26-14.256-2.576-5.088-4-12.16-4.288-21.184h-18.576c0.208 12.656 2.544 22.976 7.008 30.976 7.904 14.096 21.904 21.12 41.936 21.12 16.656 0 28.832-4.496 36.496-13.504 7.68-9.008 11.536-19.024 11.536-30.064 0-11.664-4.096-21.616-12.288-29.872-4.752-4.8-13.232-10.624-25.504-17.472l-13.904-7.712c-6.624-3.664-11.84-7.12-15.648-10.448-6.768-5.888-11.040-12.416-12.8-19.616h79.424v-17.248h-99.824c0.72 12.512 3.296 23.424 7.792 32.688zM288.576 86.16c-7.744 9.472-11.632 20.96-11.632 34.496h19.088c0.816-9.424 2.56-16.256 5.28-20.528 4.736-7.648 13.296-11.472 25.68-11.472 9.632 0 17.344 2.56 23.152 7.712s8.736 11.776 8.736 19.904c0 10.032-3.056 17.024-9.184 21.024-6.144 3.984-14.64 5.984-25.552 5.984-1.216 0-2.448-0.016-3.696-0.048-1.264-0.032-2.512-0.096-3.808-0.16v16.16c1.888-0.224 3.488-0.336 4.768-0.4 1.296-0.080 2.688-0.112 4.176-0.112 6.832 0 12.448 1.072 16.864 3.248 7.712 3.792 11.584 10.56 11.584 20.32 0 7.232-2.576 12.832-7.712 16.768-5.136 3.92-11.136 5.872-17.984 5.872-12.192 0-20.608-4.064-25.28-12.192-2.56-4.464-4.032-10.832-4.368-19.088h-18.064c0 10.848 2.16 20.048 6.496 27.632 7.44 13.552 20.528 20.32 39.296 20.32 14.832 0 26.304-3.28 34.416-9.904 8.128-6.592 12.192-16.16 12.192-28.688 0-8.944-2.4-16.176-7.2-21.712-2.992-3.472-6.832-6.176-11.584-8.128 7.664-2.112 13.632-6.16 17.92-12.16 4.304-5.968 6.448-13.312 6.448-21.968 0-13.888-4.56-25.184-13.712-33.936-9.12-8.72-22.096-13.088-38.896-13.088-17.2-0.016-29.664 4.704-37.424 14.144zM456 376h-384v-96h16v-256h352v256h16v96zM378.608 351.328c12.896 0 23.344-10.448 23.344-23.328s-10.448-23.328-23.344-23.328-23.344 10.448-23.344 23.328 10.448 23.328 23.344 23.328zM154.768 351.328c12.896 0 23.344-10.448 23.344-23.328s-10.448-23.328-23.344-23.328-23.344 10.432-23.344 23.328 10.448 23.328 23.344 23.328zM424 40h-320v240h320v-240z" />
<glyph unicode="&#xe64e;" glyph-name="cds-calender" d="M456 376h-384v-96h16v-256h352v256h16v96zM376 351.328c12.896 0 23.344-10.448 23.344-23.328s-10.448-23.328-23.344-23.328-23.344 10.448-23.344 23.328 10.448 23.328 23.344 23.328zM152.16 351.328c12.896 0 23.344-10.448 23.344-23.328s-10.448-23.328-23.344-23.328-23.344 10.432-23.344 23.328 10.448 23.328 23.344 23.328zM424 40h-320v240h320v-240zM400.704 90.544l-45.456 45.456 45.456 45.472-27.264 27.248-45.44-45.456-45.456 45.456-27.264-27.248 45.456-45.472-45.456-45.456 27.264-27.264 45.456 45.456 45.44-45.456zM136 152h96v-16h-96v16zM131.904 201.632c2.192 4.464 6.4 8.528 12.688 12.176l9.392 5.424c4.192 2.448 7.136 4.544 8.848 6.256 2.672 2.72 4 5.808 4 9.312 0 4.080-1.216 7.328-3.664 9.712-2.448 2.4-5.696 3.6-9.76 3.6-6.032 0-10.208-2.304-12.512-6.864-1.232-2.448-1.92-5.856-2.064-10.192h-8.944c0.096 6.096 1.216 11.056 3.376 14.912 3.808 6.768 10.544 10.16 20.176 10.16 8.016 0 13.872-2.16 17.568-6.496 3.68-4.336 5.552-9.152 5.552-14.448 0-5.616-1.968-10.384-5.904-14.368-2.288-2.32-6.368-5.12-12.272-8.416l-6.704-3.728c-3.184-1.76-5.696-3.44-7.536-5.024-3.248-2.832-5.312-5.984-6.16-9.424h38.224v-8.32h-48.016c0.32 6.032 1.552 11.264 3.712 15.728zM188.688 190.816c-3.712 4.544-5.584 10.080-5.584 16.592h9.168c0.4-4.528 1.232-7.808 2.528-9.872 2.288-3.68 6.4-5.52 12.368-5.52 4.624 0 8.336 1.232 11.136 3.696 2.8 2.48 4.192 5.664 4.192 9.6 0 4.816-1.472 8.192-4.416 10.096-2.944 1.936-7.024 2.896-12.288 2.896-0.592 0-1.168 0-1.776-0.016s-1.2-0.048-1.824-0.064v7.76c0.912-0.096 1.664-0.16 2.304-0.192 0.608-0.032 1.28-0.048 2-0.048 3.28 0 5.984 0.512 8.112 1.552 3.712 1.824 5.568 5.088 5.568 9.776 0 3.472-1.232 6.16-3.696 8.048-2.48 1.888-5.376 2.832-8.656 2.832-5.856 0-9.904-1.952-12.16-5.872-1.232-2.144-1.952-5.216-2.112-9.184h-8.688c0 5.216 1.040 9.632 3.12 13.28 3.584 6.512 9.872 9.776 18.912 9.776 7.136 0 12.656-1.6 16.56-4.768s5.856-7.776 5.856-13.808c0-4.304-1.152-7.776-3.472-10.448-1.44-1.664-3.28-2.96-5.584-3.904 3.696-1.008 6.56-2.96 8.624-5.84 2.080-2.88 3.104-6.416 3.104-10.576 0-6.688-2.208-12.128-6.592-16.32-4.384-4.224-10.624-6.32-18.72-6.32-8.256 0.032-14.256 2.32-17.984 6.848zM168 120h64v-16h-64v16z" />
<glyph unicode="&#xe64f;" glyph-name="cds-directory" d="M448 329.664v58.656c0 14.704-11.968 26.672-26.656 26.672h-341.344v-64h-0.992c-8.288 0-15.008-6.72-15.008-15.008v-2c0-8.272 6.72-14.992 15.008-14.992h0.992v-48h-0.992c-8.288 0-15.008-6.72-15.008-15.008v-2c0-8.288 6.72-15.008 15.008-15.008h0.992v-48h-0.992c-8.288 0.016-15.008-6.704-15.008-14.992v-2c0-8.288 6.72-15.008 15.008-15.008h0.992v-48h-0.992c-8.288 0.016-15.008-6.704-15.008-14.992v-2c0-8.288 6.72-15.008 15.008-15.008h0.992v-64h341.344c14.688 0 26.656 11.968 26.656 26.656v58.688c0 7.248-2.944 13.84-7.664 18.656 4.736 4.816 7.664 11.408 7.664 18.656v58.688c0 8.528-4.096 16.032-10.336 20.944 6.24 5.728 10.336 13.488 10.336 22.384v45.328c0 9.104-4.256 17.328-10.72 23.424 6.464 4.88 10.72 12.56 10.72 21.264zM421.344 398.992c5.872 0 10.656-4.784 10.656-10.672v-58.672c0-5.888-4.784-10.672-10.656-10.672h-5.344v80h5.344zM432 137.648c0-5.872-4.784-10.656-10.656-10.656h-5.344v80h5.344c5.872 0 10.656-4.784 10.656-10.656v-58.688zM96 30.992v48h17.008c8.288 0 15.008 6.72 15.008 15.008v2c0 8.288-6.72 15.008-15.008 15.008h-17.008v48h17.008c8.288 0 15.008 6.72 15.008 15.008v2c0 8.288-6.72 15.008-15.008 15.008h-17.008v48h17.008c8.288 0 15.008 6.72 15.008 15.008v2c0 8.288-6.72 15.008-15.008 15.008h-17.008v48h17.008c8.272-0.048 14.992 6.672 14.992 14.944v2c0 8.288-6.72 15.008-14.992 15.008h-17.008v48h304v-368h-304zM432 41.648c0-5.872-4.784-10.656-10.656-10.656h-5.344v80h5.344c5.872 0 10.656-4.784 10.656-10.656v-58.688zM256 225.936c-32.288 0-58.528 26.272-58.528 58.544s26.24 58.512 58.528 58.512 58.528-26.256 58.528-58.528-26.24-58.528-58.528-58.528zM256 326.992c-23.44 0-42.528-19.072-42.528-42.528s19.088-42.544 42.528-42.544 42.528 19.088 42.528 42.544-19.088 42.528-42.528 42.528zM291.344 203.776c-10.88-4.032-22.816-6.272-35.344-6.272s-24.464 2.24-35.344 6.272c-14.192-12.528-56.912-52.352-56.912-78.032 0-20.496 34.592-30.752 92.256-30.752s92.256 10.256 92.256 30.752c0 25.664-42.72 65.504-56.912 78.032z" />
<glyph unicode="&#xe650;" glyph-name="cds-cutlery" d="M368 364.56v99.44h-16v-96h-32v96h-16v-96h-32v96h-16v-99.44c0 0 0-23.856 0-28.208 0-24.848 10.848-46.128 29.424-56.544l-0.736-277.824c0 0-0.016 0.032 0 0 0.448-12 9.92-21.648 22.048-21.648 11.936 0 21.52 9.392 22.224 21.152 0.032 0.064 0 0 0 0l-0.064 277.712c18.592 10.16 35.248 31.84 35.248 57.152 0 4.352 3.856 28.208 3.856 28.208zM192.288 438.016c-15.2-17.904-50.448-79.12-44.992-197.616 3.504-75.824 28.704-96.464 28.704-102.128v-136.24c0-12.832 11.168-23.232 24-23.232 12.656 0 24 10.144 24 22.72 0 0.016 0 0 0 0v459.248c0 0-16.384-4.736-31.712-22.752z" />
<glyph unicode="&#xe651;" glyph-name="cds-courses" d="M334.56 269.104c-12.624-0.016-28.016-2.592-38.64-11.264-5.456-4.48-11.264-12-12.208-24.064l0.128-183.456c0 0 114.72-45.072 124.288-48.24 9.552-3.168 23.872-1.76 23.872-1.76v173.248l-139.152 56.448c-0.112 8.56 3.040 15.152 8.976 20.032 14.032 11.472 38 10.352 45.536 7.632 9.888-3.6 100.672-42.4 116.672-49.872v-187.376l16 5.008v189.136c0 0-112.8 47.6-123.664 51.888-1.968 0.784-6.272 1.584-10.752 2.080-2.176 0.272-6.8 0.752-11.056 0.56zM240 200.24v16h16v16h-208v208h288v-144c16-0.8 16-1.904 16-3.184v163.184h-320v-240h112v-16h-32v-16h144v16h-16zM224 200.24h-64v16h64v-16zM275.008 280.352c13.184 10.752 32.256 15.872 47.872 15.872 0.096 0-2.88 0-2.88 0v128h-256v-160h198.224c2.896 0.016 7.968 12.176 12.784 16.128zM119.28 280.24h-33.776l43.344 128h33.776l-43.344-128z" />
<glyph unicode="&#xe652;" glyph-name="cds-tests" d="M88 360v-240h352v240h-352zM168 168h-16v112h-32v18.304c0 0.416 16.992 1.008 21.664 1.712 4.656 0.72 20.88 0.88 23.248 4.688 2.368 3.792 8.032 7.296 9.168 7.296h-6.080v-144zM328 216h-48v-48h-16v48h-48v16h48v48h16v-48h48v-16zM392 168h-16v112h-32v18.304c0 0.416 18.176 1.008 22.832 1.712s21.776 0.88 24.16 4.688c2.336 3.792 7.152 7.296 8.304 7.296h-7.296v-144zM472 104v288h-416v-288h-32v-48h480v48h-32zM72 376h384v-272h-384v272z" />
<glyph unicode="&#xe653;" glyph-name="cds-charts-pie" d="M236.896 14.496c-112.624 0-204.256 91.632-204.256 204.256s91.632 204.24 204.256 204.24c10.48 0 21.456-0.976 33.536-2.976l7.904-1.312-32.832-197.024 146.336-135.92-5.44-5.856c-38.608-41.568-93.104-65.408-149.504-65.408zM236.896 406.992c-103.808 0-188.256-84.448-188.256-188.256s84.448-188.256 188.256-188.256c50.080 0 96.736 19.312 132.24 54.544l-140.848 130.768 31.616 189.616c-8.16 1.056-15.712 1.584-23.008 1.584zM319.536 428.192l-31.536-189.2 140.544-130.496c31.824 34.272 51.456 80.032 51.456 130.496 0 95.28-69.472 174.128-160.464 189.2z" />
<glyph unicode="&#xe654;" glyph-name="cds-tools" d="M85.536 287.248c22.32 17.328 47.872-4.432 72.544-32.992 2.8-3.216 45.872 41.872 45.872 41.872s-18.864 24.736-24.816 32.496c-43.2 56.496 89.616 94.592 89.616 94.592s-36.352 4.208-67.008 0.96c-30.672-3.264-69.136-31.904-88.512-45.232-25.328-17.376-34.784-27.52-36.384-28.928-7.152-6.256-1.152-20.704-14.112-32.080-13.744-12.064-22.304-2.976-30.256-9.92-3.968-3.488-14.992-11.728-18.144-14.528-3.168-2.784-3.728-7.488-0.512-11.248 0 0 30.16-33.344 32.704-36.288s9.344-5.424 13.568-1.712c4.256 3.696 15.088 13.216 16.944 14.864 1.856 1.616-1.216 20.608 8.496 28.144zM376.16 17.632v0c-5.504 0-10.688 2.4-14.272 6.56l-175.152 199.264c-4.896 5.664-4.32 14.256 1.248 19.184l30.32 26.464c5.872 5.104 14.112 4.528 19.184-1.36l173.392-201.6c6.768-7.84 5.968-19.808-1.808-26.688l-20.672-17.28c-3.248-2.896-7.68-4.544-12.24-4.544zM489.76 377.328c-1.776 12.112-8.080 9.552-11.312 4.416-3.264-5.136-17.664-26.976-23.6-36.88-5.888-9.824-20.384-29.168-47.36-10.064-28.112 19.904-18.352 33.76-13.424 43.104 4.88 9.36 20.032 35.664 22.192 38.944 2.192 3.296-0.352 12.912-9.088 8.896-8.72-4.048-61.792-25.152-69.168-55.36-7.488-30.8 6.304-58.288-20.8-85.616l-23.008-25.856 33.024-39.040 30.64 30.672c9.664 9.712 30.272 19.136 48.944 14.896 40.016-9.056 61.856 5.984 74.992 30.8 11.744 22.224 9.808 68.976 7.968 81.088zM83.184 53.056c-4.672-4.72-4.672-12.336-0.032-17.024l21.344-20.848c4.704-4.688 12.064-2.72 16.752 1.968l110.080 108.256-33.744 38.368-114.4-110.72z" />
<glyph unicode="&#xe655;" glyph-name="cds-campus" d="M480 366.992h-192v13.28c0 10.096-8.88 18.272-24 18.272s-24-8.176-24-18.272v-13.28h-208v-192h208v-160h48v160h192v192zM48 190.992v160h416v-160h-416zM114.704 293.040c-1.456 6.256-4.176 10.72-8.128 13.36-3.968 2.656-9.136 3.952-15.536 3.952-4.528 0-8.416-0.88-11.68-2.64-3.232-1.744-5.936-4.112-8.064-7.12-2.128-2.992-3.68-6.432-4.704-10.32-1.008-3.904-1.488-8.048-1.488-12.368 0-4.096 0.4-8.112 1.296-12.016 0.864-3.952 2.304-7.488 4.32-10.544 2.016-3.072 4.72-5.6 8.144-7.472 3.392-1.904 7.664-2.864 12.832-2.864 3.184 0 6.096 0.512 8.736 1.504 2.64 1.040 4.976 2.416 6.944 4.24 1.984 1.808 3.664 3.92 5.008 6.368 1.344 2.432 2.368 5.104 3.056 8.048h7.408c-0.848-3.536-2.048-6.88-3.664-10.032-1.6-3.168-3.712-5.92-6.32-8.304-2.592-2.384-5.76-4.256-9.488-5.664-3.712-1.392-8.064-2.096-13.072-2.096-5.744 0-10.72 1.040-14.8 3.104-4.096 2.080-7.44 4.88-10.064 8.416-2.608 3.504-4.496 7.6-5.664 12.256-1.184 4.656-1.792 9.584-1.792 14.816 0 6.992 0.896 12.944 2.656 17.824 1.776 4.88 4.224 8.88 7.344 11.952 3.12 3.104 6.832 5.312 11.040 6.72 4.256 1.392 8.896 2.112 13.904 2.112 3.824 0 7.408-0.496 10.704-1.472 3.28-0.992 6.192-2.448 8.752-4.448 2.496-1.952 4.608-4.352 6.24-7.28 1.648-2.864 2.784-6.208 3.392-10.032h-7.312zM160.576 271.76c1.168 0.16 2.576 0.368 4.24 0.624 1.632 0.272 2.944 0.672 4.016 1.136 1.040 0.448 1.664 1.28 1.904 2.384s0.368 2.128 0.368 3.088c0 3.104-1.024 5.696-3.072 7.68-2.048 2-5.488 3.008-10.352 3.008-2.176 0-4.144-0.208-5.952-0.56-1.808-0.384-3.376-1.024-4.736-1.936-1.376-0.928-2.48-2.16-3.344-3.664-0.88-1.536-1.44-3.472-1.712-5.776h-6.368c0.224 3.152 0.928 5.824 2.192 8 1.248 2.208 2.88 4 4.848 5.408s4.304 2.384 6.912 3.040c2.576 0.656 5.36 0.992 8.272 0.992 2.688 0 5.264-0.288 7.664-0.88 2.416-0.56 4.48-1.504 6.24-2.768 1.808-1.248 3.184-2.944 4.208-5.024 1.008-2.112 1.52-4.672 1.52-7.712v-28.72c0-2.368 0.4-3.888 1.296-4.544 0.848-0.624 2.624-0.48 5.264 0.48v-4.832c-0.48-0.112-1.2-0.32-2.16-0.576-0.928-0.288-1.84-0.416-2.768-0.416-0.96 0-1.872 0.096-2.816 0.304-1.024 0.16-1.872 0.48-2.48 0.992-0.624 0.48-1.12 1.12-1.536 1.824-0.368 0.704-0.624 1.488-0.768 2.336-0.176 0.864-0.256 1.76-0.256 2.688-2.624-2.816-5.664-5.008-9.072-6.48-3.392-1.504-7.040-2.272-11.040-2.272-2.352 0-4.624 0.336-6.816 0.928-2.208 0.624-4.112 1.568-5.776 2.88-1.664 1.264-3.008 2.864-3.984 4.72-0.96 1.872-1.44 4.112-1.44 6.656 0 8.976 6.288 14.272 18.864 15.904l8.64 1.088zM171.104 268.704c-2.64-1.056-5.328-1.776-8.016-2.128-2.72-0.336-5.424-0.624-8.144-0.816-4.816-0.352-8.528-1.392-11.216-3.152-2.672-1.792-4-4.448-4-8.048 0-1.648 0.336-3.024 1.008-4.24 0.656-1.184 1.52-2.176 2.608-2.96 1.056-0.784 2.304-1.328 3.728-1.712s2.864-0.56 4.336-0.56c2.512 0 4.96 0.304 7.296 0.944 2.368 0.592 4.448 1.52 6.32 2.8 1.824 1.232 3.296 2.832 4.4 4.768 1.136 1.952 1.68 4.24 1.68 6.88v8.224zM199.136 241.024h-6.256v52.752h6.256v-7.936h0.208c1.616 3.056 3.888 5.376 6.896 6.992 2.976 1.6 6.24 2.384 9.776 2.384 2.496 0 4.608-0.288 6.368-0.816 1.712-0.544 3.184-1.28 4.4-2.208 1.232-0.928 2.224-1.984 3.024-3.184 0.816-1.248 1.488-2.56 2.048-4 1.776 3.472 4.224 6.016 7.216 7.68 3.024 1.664 6.496 2.512 10.368 2.512 3.68 0 6.656-0.592 8.816-1.808 2.192-1.184 3.888-2.752 5.040-4.672 1.184-1.92 1.984-4.144 2.352-6.656 0.384-2.512 0.576-5.072 0.576-7.744v-33.296h-6.224v36.448c0 3.792-0.816 6.784-2.432 8.976-1.664 2.16-4.688 3.264-9.12 3.264-2.304 0-4.48-0.512-6.624-1.488-2.128-0.976-3.968-2.496-5.568-4.512-0.72-0.912-1.28-1.92-1.728-3.136-0.432-1.152-0.832-2.416-1.088-3.696-0.256-1.264-0.48-2.592-0.592-3.856-0.080-1.296-0.128-2.48-0.128-3.584v-28.4h-6.272v36.448c0 3.792-0.832 6.784-2.432 8.976-1.632 2.16-4.688 3.264-9.12 3.264-2.32 0-4.48-0.512-6.608-1.488-2.144-0.976-4-2.496-5.6-4.512-0.688-0.912-1.248-1.92-1.712-3.136-0.448-1.152-0.816-2.416-1.088-3.696-0.288-1.264-0.448-2.592-0.56-3.856-0.128-1.296-0.16-2.48-0.16-3.584v-28.432zM287.536 220.272h-6.272v73.504h6.272v-9.264h0.192c0.928 1.696 2.064 3.2 3.52 4.576 1.408 1.36 2.976 2.464 4.688 3.36 1.68 0.88 3.472 1.568 5.248 2.048 1.824 0.464 3.6 0.72 5.312 0.72 4.4 0 8.096-0.72 11.168-2.176 3.040-1.424 5.584-3.376 7.568-5.824 1.984-2.464 3.424-5.408 4.32-8.816 0.912-3.392 1.344-7.008 1.344-10.896 0-3.664-0.448-7.168-1.456-10.608-0.992-3.392-2.416-6.352-4.416-8.912s-4.48-4.576-7.504-6.096c-3.024-1.552-6.592-2.32-10.688-2.32-3.808 0-7.488 0.848-11.008 2.512s-6.272 4.128-8.288 7.376v-29.184zM287.536 267.2c0-2.992 0.4-5.824 1.248-8.496 0.816-2.672 2.032-5.024 3.6-7.024 1.584-2 3.456-3.6 5.728-4.784 2.256-1.2 4.816-1.776 7.664-1.776 3.184 0 5.984 0.608 8.4 1.904 2.368 1.2 4.336 2.96 5.872 5.104 1.536 2.208 2.64 4.72 3.328 7.6 0.704 2.88 1.008 5.984 0.848 9.312 0 3.328-0.464 6.272-1.424 8.816-0.928 2.544-2.24 4.688-3.872 6.464-1.68 1.728-3.664 3.088-5.856 4.016-2.208 0.912-4.672 1.392-7.296 1.392-2.912 0-5.52-0.592-7.792-1.744-2.304-1.152-4.24-2.72-5.744-4.736-1.536-1.984-2.688-4.368-3.488-7.12-0.832-2.768-1.216-5.728-1.216-8.928zM380.816 293.776h6.256v-52.752h-6.256v7.312c-0.848-0.928-1.76-1.888-2.816-2.944-1.040-1.008-2.256-1.952-3.616-2.784-1.36-0.88-2.928-1.584-4.736-2.16-1.808-0.56-3.888-0.88-6.256-0.88-3.616 0-6.64 0.496-9.072 1.472-2.416 1.008-4.384 2.368-5.888 4.16-1.472 1.744-2.56 3.808-3.216 6.176-0.656 2.336-0.992 4.88-0.992 7.664v34.72h6.24v-34.624c0-4.56 1.104-8.032 3.248-10.432 2.144-2.384 5.664-3.616 10.64-3.616 2.56 0 4.88 0.496 6.912 1.488 2.048 0.976 3.76 2.336 5.168 4.112 1.392 1.776 2.432 3.872 3.232 6.336 0.768 2.416 1.136 5.136 1.136 8.016v28.736zM405.824 257.52c0.992-4.576 2.736-7.744 5.248-9.616 2.56-1.856 6.176-2.816 10.896-2.816 2.32 0 4.304 0.272 5.952 0.832 1.68 0.528 3.056 1.264 4.128 2.176 1.072 0.928 1.872 1.952 2.448 3.104 0.56 1.152 0.832 2.384 0.832 3.664 0 2.56-0.848 4.48-2.56 5.744-1.68 1.232-3.808 2.24-6.384 2.944-2.576 0.72-5.36 1.312-8.336 1.824-2.992 0.528-5.76 1.28-8.336 2.336-2.576 0.992-4.704 2.448-6.416 4.368-1.68 1.872-2.528 4.56-2.528 8.032 0 4.416 1.648 8.048 4.928 10.864 3.312 2.8 8 4.224 14.048 4.224 5.84 0 10.56-1.28 14.224-3.824 3.648-2.56 5.856-6.8 6.624-12.784h-6.384c-0.528 4.080-2.112 6.944-4.72 8.608-2.576 1.68-5.872 2.496-9.84 2.496s-6.976-0.816-9.072-2.496c-2.080-1.664-3.104-3.872-3.104-6.56 0-2.368 0.832-4.192 2.528-5.456 1.712-1.264 3.856-2.272 6.416-3.056 2.576-0.784 5.36-1.472 8.336-2.096 2.992-0.608 5.744-1.456 8.336-2.576 2.576-1.136 4.704-2.64 6.4-4.528 1.728-1.92 2.56-4.56 2.56-7.936 0-2.512-0.56-4.736-1.664-6.688-1.12-1.936-2.64-3.536-4.592-4.832-1.936-1.296-4.272-2.272-6.912-2.896-2.72-0.672-5.648-1.008-8.848-1.008-3.168 0-6 0.48-8.48 1.408-2.464 0.912-4.576 2.192-6.304 3.808-1.728 1.648-3.104 3.52-4.096 5.68-0.944 2.192-1.52 4.528-1.648 7.024h6.32z" />
<glyph unicode="&#xe656;" glyph-name="cds-sports" d="M131.072-26.016l0.72 12.288c2.736 25.872 41.872 40.832 80.56 59.12 30.416 14.352 64.88 30.656 64.144 45.472-0.4 7.872-11.808 24.912-83.968 50.592-75.488 26.816-110.128 61.52-102.976 103.12 13.328 77.184 180.048 149.696 273.056 149.696 40.208 0 55.312-13.808 60.912-25.408 9.52-19.632-0.176-47.856-28.752-83.872l-8.080-10.224-5.040 12.016c-13.296 31.696-49.968 36.416-70.672 36.416-46.864 0-95.856-22.48-111.536-51.2-7.584-13.856-6.752-28.192 2.464-42.592 12.864-20.064 35.28-32.656 59.024-45.984 37.216-20.944 75.68-42.56 75.168-94.912h0.016l-0.048-1.264c0-0.384-0.016-0.784-0.032-1.2v0-0.016l-0.016-0.112h0.016l-0.016-0.096-0.24-4.080c-5.296-69.696-79.872-83.36-139.984-94.384-19.2-3.504-34.096-6.336-51.248-10.288l-13.472-3.088zM362.64 378.88c-83.984 0-246.176-69.008-257.872-136.912-7.104-41.232 46.624-69.52 92.944-85.984 64.064-22.816 93.104-42.64 94.176-64.352 1.264-25.072-34.784-42.144-72.944-60.16-23.6-11.152-49.568-23.44-61.952-36.128 11.12 2.656 23.344 4.896 36.032 7.216 58.544 10.736 124.896 22.896 127.584 83.056l0.064 1.808c1.088 44.16-32.128 62.816-67.28 82.576-24.336 13.664-49.52 27.824-64.432 51.12-12.336 19.232-13.36 39.376-3.024 58.304 18.464 33.76 72.224 59.2 125.072 59.2 36.048 0 64.032-12.464 78.88-34.672 18.608 25.712 25.648 46.16 19.808 58.208-5.216 10.784-21.92 16.72-47.056 16.72zM177.296 420.768c0-25.529-20.695-46.224-46.224-46.224s-46.224 20.695-46.224 46.224c0 25.529 20.695 46.224 46.224 46.224s46.224-20.695 46.224-46.224z" />
<glyph unicode="&#xe657;" glyph-name="cds-bus" d="M56 248h64v-64h-64v64zM120 248h64v-64h-64v64zM328 248h48v-64h-48v64zM439.552 248h-47.552v-64h62.384c0 0-0.096 12.592-0.096 17.152 0.016 10.848-14.736 46.848-14.736 46.848zM216 280h-192v-192h74.96c3.44-16 18.416-29.68 36.352-29.68s32.912 13.68 36.352 29.68h44.336v192zM200 104h-28.336c-3.44 16-18.416 29.68-36.352 29.68s-32.912-13.68-36.352-29.68h-58.96v160h160v-160zM498.912 88c0 0-0.336 66.576-0.336 81.616 0 36.912-33.392 110.384-33.392 110.384h-169.184v-192h70.096c3.44-16 18.4-29.68 36.352-29.68 17.936 0 32.912 13.68 36.336 29.68h60.128zM312 264h143.552c6.608-16 28.768-66.192 28.768-94.832 0-11.76-0.24-49.168-0.24-65.168h-45.28c-3.44 16-18.4 29.68-36.336 29.68-17.952 0-32.928-13.68-36.352-29.68h-54.112v160zM248 90.528c0-4.224-3.904-7.632-8-7.632v0c-4.096 0-8 3.408-8 7.632v183.232c0 4.224 3.904 7.648 8 7.648v0c4.096 0 8-3.408 8-7.648v-183.232zM280 90.528c0-4.224-3.904-7.632-8-7.632v0c-4.096 0-8 3.408-8 7.632v183.232c0 4.224 3.904 7.648 8 7.648v0c4.096 0 8-3.408 8-7.648v-183.232z" />
<glyph unicode="&#xe658;" glyph-name="cds-bulb" d="M336 96.336h-158.672v9.664c0 43.584-22.672 73.168-46.656 104.496-25.584 33.408-52.048 67.968-47.568 119.6 5.648 64.8 54.272 134.032 173.744 134.032 119.504 0 168.112-69.232 173.744-134.032 4.496-51.632-22.064-86.192-47.76-119.6-24.080-31.328-46.832-60.928-46.832-104.496v-9.664zM193.104 112h127.12c2.592 44.688 26.64 77.952 49.936 108.256 24.928 32.416 48.464 63.024 44.512 108.448-2.432 28.016-21.008 119.424-157.808 119.424-136.752 0-155.36-91.408-157.808-119.424-3.952-45.44 19.504-76.048 44.336-108.48 23.184-30.288 47.136-63.552 49.712-108.224zM312 304c-10.432 0-19.232-6.704-22.528-16h-66.944c-3.312 9.296-12.096 16-22.528 16-13.264 0-24-10.736-24-24s10.736-24 24-24c10.432 0 19.232 6.704 22.528 16h66.944c3.312-9.296 12.096-16 22.528-16 13.264 0 24 10.736 24 24s-10.736 24-24 24zM336 80h-160c0 0 0-85.184 0-88 0-13.264 10.736-24 24-24h112c13.264 0 24 10.736 24 24 0 2.816 0 88 0 88z" />
<glyph unicode="&#xe659;" glyph-name="cds-books" d="M456.064 377.36c0 0-184.8 73.744-202.048 80.544-11.312 4.448-53.216 9.072-83.248-6.32-15.024-7.728-26.288-19.152-30.352-37.472-20.096-0.064-44.784-4.128-61.696-17.968-8.672-7.104-18.048-19.072-19.536-38.256l0.144-292c0 0 187.040-71.792 202.24-76.784 15.2-5.056 42.432-2.816 42.432-2.816v275.728l-225.92 89.872c-0.208 13.664 2.624 24.16 12.032 31.888 22.304 18.256 69.328 15.472 80.112 11.264 15.568-6.128 165.776-66.64 197.776-78.512v-296.656l16 8v299.472c0 0-191.36 75.76-208.624 82.56-3.168 1.248-10.304 2.512-17.456 3.312 2.912 10.56 8.848 18.432 19.92 24.128 25.008 12.832 64.304 8.688 71.936 5.68 15.568-6.112 166.224-66.624 198.224-78.496v-303.024l16 8v305.84l-7.936 2.016z" />
<glyph unicode="&#xe65a;" glyph-name="cds-angle-left-slim" d="M345.376 63.632l-158.176 160.992 158.176 160.752-8.688 10.224-170.064-170.976 170.064-170.96z" />
<glyph unicode="&#xe65b;" glyph-name="cds-angle-right-slim" d="M175.312 53.664l170.064 170.96-170.064 170.976-8.688-10.224 158.176-160.752-158.176-160.992z" />
<glyph unicode="&#xe65c;" glyph-name="cds-upload-slim" d="M112 430.992h272v-32h-272v32zM134.288 210.016l105.712 133.488v-328.512h16v328.512l105.728-133.488 12.56 9.952-126.288 159.392-126.288-159.392z" />
<glyph unicode="&#xe65d;" glyph-name="cds-search-fat" d="M428.688 113.936l-72.448 72.448c11.248 19.040 17.824 41.2 17.824 64.928 0 70.688-57.312 128-128 128s-128-57.312-128-128 57.312-128 128-128c23.728 0 45.872 6.576 64.928 17.824l72.448-72.448 45.248 45.248zM181.312 251.312c0 35.76 28.992 64.752 64.752 64.752s64.752-28.992 64.752-64.752-28.992-64.752-64.752-64.752-64.752 28.992-64.752 64.752z" />
<glyph unicode="&#xe900;" glyph-name="cds-invalid-elevator" d="M363.2 84.8c6.4-9.6 20.8-14.4 30.4-8 11.2 6.4 14.4 19.2 8 30.4l-65.6 115.2c-4.8 6.4-11.2 11.2-19.2 11.2h-97.6l-1.6 28.8h70.4c9.6 0 17.6 8 17.6 17.6s-8 17.6-17.6 17.6h-72l-3.2 27.2c-1.6 20.8-19.2 36.8-40 35.2-17.6-1.6-33.6-19.2-32-40l6.4-110.4c1.6-20.8 19.2-35.2 40-35.2h124.8l51.2-89.6zM208 417.6c0-19.441-15.76-35.2-35.2-35.2s-35.2 15.76-35.2 35.2c0 19.44 15.76 35.2 35.2 35.2s35.2-15.76 35.2-35.2zM320 108.8c-17.6-49.6-65.6-84.8-120-84.8-70.4 0-128 57.6-128 128 0 40 19.2 76.8 48 100.8l-1.6 19.2c-38.4-25.6-64-70.4-64-118.4 0-80 64-144 144-144 57.6 0 107.2 33.6 131.2 83.2l-9.6 16zM428.8 438.4l51.2-104h-102.4zM310.4 337.6l-51.2 105.6h102.4z" />
</font>
</defs>
</svg>
